<?xml version="1.0" encoding="UTF-8"?>
<svg width="1200" height="300" viewBox="0 0 1200 300" fill="none" xmlns="http://www.w3.org/2000/svg">
  <title>博客页面banner</title>
  <rect width="1200" height="300" fill="#4361EE" opacity="0.1"/>
  <path d="M0,150 C200,50 400,250 600,150 C800,50 1000,250 1200,150 L1200,300 L0,300 Z" fill="#4361EE" opacity="0.2"/>
  <path d="M0,180 C150,120 300,240 450,180 C600,120 750,240 900,180 C1050,120 1200,240 1350,180 L1350,300 L0,300 Z" fill="#4361EE" opacity="0.3"/>
  <circle cx="150" cy="100" r="20" fill="#4361EE" opacity="0.1"/>
  <circle cx="450" cy="80" r="30" fill="#4361EE" opacity="0.1"/>
  <circle cx="750" cy="120" r="25" fill="#4361EE" opacity="0.1"/>
  <circle cx="1000" cy="70" r="35" fill="#4361EE" opacity="0.1"/>
  <circle cx="1150" cy="130" r="15" fill="#4361EE" opacity="0.1"/>
</svg>
