<svg xmlns="http://www.w3.org/2000/svg" viewBox="0 0 200 120" width="200" height="120">
  <!-- 渐变定义 -->
  <defs>
    <linearGradient id="unicomGradient" x1="0%" y1="0%" x2="100%" y2="100%">
      <stop offset="0%" stop-color="#E0F7FA" />
      <stop offset="100%" stop-color="#B2EBF2" />
    </linearGradient>
  </defs>
  
  <rect x="0" y="0" width="200" height="120" fill="url(#unicomGradient)" />
  <rect x="30" y="10" width="140" height="100" rx="10" fill="#06b6d4" opacity="0.8"/>
  <rect x="50" y="20" width="100" height="70" rx="5" fill="#FFF" opacity="0.8"/>
  <rect x="50" y="20" width="30" height="30" rx="5" fill="#06b6d4" opacity="0.2"/>
  <text x="100" y="70" font-family="Arial" font-size="12" font-weight="bold" fill="#06b6d4" text-anchor="middle">联通流量卡</text>
  
  <!-- SIM卡芯片 -->
  <rect x="70" y="35" width="10" height="15" rx="2" fill="#06b6d4"/>
  
  <!-- 信号波纹 -->
  <path d="M130 30 Q140 25 150 30" stroke="#06b6d4" stroke-width="2" fill="none"/>
  <path d="M130 25 Q140 20 150 25" stroke="#06b6d4" stroke-width="1.5" fill="none"/>
  <path d="M130 20 Q140 15 150 20" stroke="#06b6d4" stroke-width="1" fill="none"/>
  
  <!-- 皇冠 -->
  <path d="M85 15 L100 0 L115 15 L105 18 L95 18 Z" fill="#06b6d4"/>
  
  <!-- 星星 -->
  <path d="M135 15 L138 8 L142 15 L150 16 L143 21 L145 28 L138 25 L130 28 L133 21 L125 16 Z" fill="#06b6d4" transform="scale(0.5)"/>
</svg> 