<svg width="500" height="400" viewBox="0 0 500 400" fill="none" xmlns="http://www.w3.org/2000/svg">
  <!-- 弧线装饰 -->
  <path d="M130 70 Q 250 20, 370 70" stroke="#D8D8FF" stroke-width="3" fill="none" />
  
  <!-- 蓝色卡片 (左侧) -->
  <g transform="translate(80, 140) rotate(-25)">
    <rect x="0" y="0" width="160" height="260" rx="20" fill="#5D5FEF" />
    <rect x="12" y="12" width="136" height="236" rx="15" fill="#E8E8FF" />
    
    <!-- 卡片内容 -->
    <text x="30" y="70" font-family="Arial, sans-serif" font-size="16" font-weight="bold" fill="#5D5FEF">好卡好货</text>
    <text x="30" y="100" font-family="Arial, sans-serif" font-size="14" fill="#5D5FEF">全国通用</text>
    <text x="30" y="210" font-family="Arial, sans-serif" font-size="14" fill="#5D5FEF">稳定可靠</text>
  </g>
  
  <!-- 粉色卡片 (中间) -->
  <g transform="translate(175, 120)">
    <rect x="0" y="0" width="160" height="260" rx="20" fill="#FF6B7A" />
    <rect x="12" y="12" width="136" height="236" rx="15" fill="#FFE8EA" />
    
    <!-- 卡片内容 -->
    <text x="30" y="70" font-family="Arial, sans-serif" font-size="16" font-weight="bold" fill="#FF6B7A">好卡好货</text>
    <text x="30" y="100" font-family="Arial, sans-serif" font-size="14" fill="#FF6B7A">正规流量</text>
    <text x="30" y="210" font-family="Arial, sans-serif" font-size="14" fill="#FF6B7A">覆盖全国</text>
  </g>
  
  <!-- 青色卡片 (右侧) -->
  <g transform="translate(270, 140) rotate(25)">
    <rect x="0" y="0" width="160" height="260" rx="20" fill="#0DC4D9" />
    <rect x="12" y="12" width="136" height="236" rx="15" fill="#E8FCFF" />
    
    <!-- 卡片内容 -->
    <text x="30" y="70" font-family="Arial, sans-serif" font-size="16" font-weight="bold" fill="#0DC4D9">好卡好货</text>
    <text x="30" y="100" font-family="Arial, sans-serif" font-size="14" fill="#0DC4D9">高速上网</text>
    <text x="30" y="210" font-family="Arial, sans-serif" font-size="14" fill="#0DC4D9">运营商可查</text>
  </g>
</svg> 