<svg xmlns="http://www.w3.org/2000/svg" viewBox="0 0 24 24" width="24" height="24">
  <path d="M8.5 13.5c-0.7 0-1.2-0.5-1.2-1.2s0.5-1.2 1.2-1.2 1.2 0.5 1.2 1.2-0.5 1.2-1.2 1.2z m7-1.2c0-0.7-0.5-1.2-1.2-1.2s-1.2 0.5-1.2 1.2 0.5 1.2 1.2 1.2 1.2-0.5 1.2-1.2z m-10.3 5.9c-3.2-1.7-4.2-4.8-4.2-4.8 0 0 0-0.1 0-0.1 0-2.8 2.2-5.5 5.7-5.5 2.8 0 5.1 1.5 6 3.8-0.2 0-0.5-0.1-0.7-0.1-2.6 0-4.8 2-4.8 4.5 0 0.4 0.1 0.8 0.2 1.2 0 0-0.1 0.1-0.2 0.2-0.6 0.5-1.3 0.8-2 0.8z m14-1.5c0 1-0.9 1.8-1.8 1.8-0.4 0-0.7-0.1-1-0.3l-1 0.5c0 0 0.3-1 0.3-1-0.5-0.4-0.8-1-0.8-1.6 0-1.2 1.1-2.2 2.5-2.2s2.5 1 2.5 2.2c0 0.2 0 0.3-0.1 0.5 0.1 0.1 0.2 0.2 0.2 0.3l1 0.5-1.2-0.4c-0.1 0.5-0.3 0.7-0.6 0.7z m-0.2-9.5c3.5 0 6.4 2.4 6.4 5.3 0 2.9-2.9 5.3-6.4 5.3-0.4 0-0.7 0-1.1-0.1-0.5 0.3-1.7 1.1-1.7 1.1s0.5-1.7 0.5-1.7-1.6-1.1-1.6-3.1c-0.1-3 2.4-6.8 3.9-6.8z" fill="#4F46E5"/>
</svg> 