<?xml version="1.0" encoding="UTF-8"?>
<svg width="24px" height="24px" viewBox="0 0 24 24" version="1.1" xmlns="http://www.w3.org/2000/svg" xmlns:xlink="http://www.w3.org/1999/xlink">
    <title>微博图标</title>
    <g stroke="none" stroke-width="1" fill="none" fill-rule="evenodd">
        <path d="M9.82727273,14.6363636 C7.90909091,14.6363636 6.36363636,13.0909091 6.36363636,11.1727273 C6.36363636,9.25454545 7.90909091,7.70909091 9.82727273,7.70909091 C11.7454545,7.70909091 13.2909091,9.25454545 13.2909091,11.1727273 C13.2909091,13.0909091 11.7454545,14.6363636 9.82727273,14.6363636 M15.8181818,7.70909091 C15.5272727,7.70909091 15.2363636,7.56363636 15.0909091,7.27272727 C15.0909091,7.12727273 15.0909091,6.98181818 15.0909091,6.83636364 C15.3818182,5.94545455 15.2363636,4.76363636 14.6,3.98181818 C13.9636364,3.2 12.7818182,2.89090909 11.8909091,3.18181818 C11.6,3.18181818 11.1636364,3.18181818 10.8727273,2.89090909 C10.4363636,2.45454545 10.4363636,1.85454545 10.8727273,1.41818182 C12.6454545,0.0909090909 15.0909091,0.527272727 16.4181818,2.16363636 C17.7454545,3.8 18.0363636,6.24545455 16.7090909,8.01818182 C16.4181818,7.85454545 16.1272727,7.70909091 15.8181818,7.70909091 M21.8909091,11.1727273 C21.8909091,6.24545455 17.0909091,1.85454545 11.3090909,1.85454545 L11.0181818,1.85454545 C5.09090909,1.85454545 0.436363636,6.24545455 0.436363636,11.1727273 C0.436363636,14.3454545 2.21818182,17.0818182 4.87272727,18.7 C4.87272727,18.7 4.87272727,18.7 5.01818182,18.8545455 C5.45454545,19 5.6,19.1454545 5.74545455,19.1454545 C6.03636364,19.1454545 6.32727273,18.8545455 6.47272727,18.5636364 C6.47272727,18.5636364 6.47272727,18.5636364 6.61818182,18.4181818 C6.61818182,18.4181818 6.61818182,18.4181818 6.61818182,18.2727273 C6.61818182,18.1272727 6.61818182,17.9818182 6.47272727,17.8363636 C3.10909091,13.3818182 5.45454545,7.41818182 11.0181818,6.38181818 C11.0181818,6.38181818 12.0545455,6.23636364 13.2363636,6.38181818 C17.5272727,7.12727273 20.8909091,10.2818182 20.8909091,13.8909091 C20.8909091,16.0454545 19.4363636,18.4181818 17.2909091,19.7454545 C16.8545455,19.8909091 16.5636364,20.2 16.7090909,20.7818182 C16.8545455,21.2181818 17.2909091,21.3636364 17.7272727,21.2181818 C20.8909091,19.6 22.0545455,15.4363636 21.8909091,11.1727273" fill="#4361EE"></path>
    </g>
</svg> 