<svg xmlns="http://www.w3.org/2000/svg" width="50" height="50" viewBox="0 0 50 50" fill="none">
  <circle cx="25" cy="25" r="23" fill="#4F46E5" fill-opacity="0.1" stroke="#4F46E5" stroke-width="2"/>
  <path d="M32 30H30M32 26V20L28 16H18C16.8954 16 16 16.8954 16 18V26C16 27.1046 16.8954 28 18 28H32C33.1046 28 34 27.1046 34 26ZM22 34C22 35.1046 21.1046 36 20 36C18.8954 36 18 35.1046 18 34C18 32.8954 18.8954 32 20 32C21.1046 32 22 32.8954 22 34ZM32 34C32 35.1046 31.1046 36 30 36C28.8954 36 28 35.1046 28 34C28 32.8954 28.8954 32 30 32C31.1046 32 32 32.8954 32 34Z" stroke="#4F46E5" stroke-width="2" stroke-linecap="round" stroke-linejoin="round"/>
  <path d="M22 20H16" stroke="#4F46E5" stroke-width="2" stroke-linecap="round" stroke-linejoin="round"/>
  <path d="M18 24H14" stroke="#4F46E5" stroke-width="2" stroke-linecap="round" stroke-linejoin="round"/>
</svg> 