<svg xmlns="http://www.w3.org/2000/svg" width="24" height="24" viewBox="0 0 24 24" fill="none" stroke="#4F46E5" stroke-width="2" stroke-linecap="round" stroke-linejoin="round">
  <path d="M12 2C7.58 2 4 5.58 4 10c0 2.35 1.01 4.46 2.62 5.91l-0.62 1.91l1.65-0.54c1.32 0.72 2.84 1.13 4.45 1.13 4.42 0 8-3.58 8-8S16.42 2 12 2z"></path>
  <path d="M6.5 11c-0.28 0-0.5-0.22-0.5-0.5s0.22-0.5 0.5-0.5 0.5 0.22 0.5 0.5-0.22 0.5-0.5 0.5z"></path>
  <path d="M17.5 11c-0.28 0-0.5-0.22-0.5-0.5s0.22-0.5 0.5-0.5 0.5 0.22 0.5 0.5-0.22 0.5-0.5 0.5z"></path>
  <path d="M14 13.5c0 1.1-0.9 2-2 2s-2-0.9-2-2"></path>
</svg> 